<mxfile host="app.diagrams.net" modified="2024-03-20T01:20:07.659Z" agent="Mozilla/5.0 (Windows NT 10.0; Win64; x64) AppleWebKit/537.36 (KHTML, like Gecko) Chrome/122.0.0.0 Safari/537.36 Edg/122.0.0.0" etag="uLfQ38v6UgXw3cJ7Rp9J" version="24.0.7" type="device">
  <diagram name="Page-1" id="rT3A61Lc5wodD13zf6MT">
    <mxGraphModel dx="1002" dy="665" grid="1" gridSize="10" guides="1" tooltips="1" connect="1" arrows="1" fold="1" page="1" pageScale="1" pageWidth="850" pageHeight="1100" math="0" shadow="0">
      <root>
        <mxCell id="0" />
        <mxCell id="1" parent="0" />
        <mxCell id="m1CVX7sw61erVR6o-4q7-2" value="&lt;font style=&quot;font-size: 17px;&quot;&gt;main&lt;/font&gt;" style="rounded=1;whiteSpace=wrap;html=1;" vertex="1" parent="1">
          <mxGeometry x="120" y="40" width="120" height="60" as="geometry" />
        </mxCell>
        <mxCell id="m1CVX7sw61erVR6o-4q7-5" value="" style="endArrow=classic;html=1;rounded=0;" edge="1" parent="1">
          <mxGeometry width="50" height="50" relative="1" as="geometry">
            <mxPoint x="120" y="100" as="sourcePoint" />
            <mxPoint x="70" y="190" as="targetPoint" />
          </mxGeometry>
        </mxCell>
        <mxCell id="m1CVX7sw61erVR6o-4q7-6" value="&lt;span style=&quot;font-family: &amp;quot;trebuchet ms&amp;quot;, verdana, arial, sans-serif; font-size: 16px; text-align: start; text-wrap: nowrap; background-color: rgb(255, 255, 255);&quot;&gt;Buttons Task&lt;/span&gt;" style="rounded=1;whiteSpace=wrap;html=1;" vertex="1" parent="1">
          <mxGeometry y="190" width="120" height="60" as="geometry" />
        </mxCell>
        <mxCell id="m1CVX7sw61erVR6o-4q7-7" value="&lt;span style=&quot;font-family: &amp;quot;trebuchet ms&amp;quot;, verdana, arial, sans-serif; font-size: 16px; text-align: start; text-wrap: nowrap; background-color: rgb(255, 255, 255);&quot;&gt;LEDs Task&lt;/span&gt;" style="rounded=1;whiteSpace=wrap;html=1;" vertex="1" parent="1">
          <mxGeometry x="130" y="190" width="120" height="60" as="geometry" />
        </mxCell>
        <mxCell id="m1CVX7sw61erVR6o-4q7-8" value="" style="endArrow=classic;html=1;rounded=0;entryX=0.25;entryY=0;entryDx=0;entryDy=0;" edge="1" parent="1" target="m1CVX7sw61erVR6o-4q7-7">
          <mxGeometry width="50" height="50" relative="1" as="geometry">
            <mxPoint x="160" y="100" as="sourcePoint" />
            <mxPoint x="210" y="50" as="targetPoint" />
          </mxGeometry>
        </mxCell>
        <mxCell id="m1CVX7sw61erVR6o-4q7-9" value="" style="endArrow=classic;html=1;rounded=0;entryX=0.25;entryY=0;entryDx=0;entryDy=0;" edge="1" parent="1" target="m1CVX7sw61erVR6o-4q7-10">
          <mxGeometry width="50" height="50" relative="1" as="geometry">
            <mxPoint x="200" y="100" as="sourcePoint" />
            <mxPoint x="300" y="200" as="targetPoint" />
          </mxGeometry>
        </mxCell>
        <mxCell id="m1CVX7sw61erVR6o-4q7-10" value="&lt;span style=&quot;font-family: &amp;quot;trebuchet ms&amp;quot;, verdana, arial, sans-serif; font-size: 16px; text-align: start; text-wrap: nowrap; background-color: rgb(255, 255, 255);&quot;&gt;UART Task&lt;/span&gt;" style="rounded=1;whiteSpace=wrap;html=1;" vertex="1" parent="1">
          <mxGeometry x="260" y="190" width="120" height="60" as="geometry" />
        </mxCell>
        <mxCell id="m1CVX7sw61erVR6o-4q7-13" value="&lt;span style=&quot;font-family: &amp;quot;trebuchet ms&amp;quot;, verdana, arial, sans-serif; font-size: 16px; text-align: start; text-wrap: nowrap; background-color: rgb(255, 255, 255);&quot;&gt;LEDs Task&lt;/span&gt;" style="rounded=1;whiteSpace=wrap;html=1;" vertex="1" parent="1">
          <mxGeometry x="120" y="310" width="120" height="60" as="geometry" />
        </mxCell>
        <mxCell id="m1CVX7sw61erVR6o-4q7-14" value="" style="endArrow=classic;html=1;rounded=0;" edge="1" parent="1">
          <mxGeometry width="50" height="50" relative="1" as="geometry">
            <mxPoint x="120" y="370" as="sourcePoint" />
            <mxPoint x="90" y="450" as="targetPoint" />
          </mxGeometry>
        </mxCell>
        <mxCell id="m1CVX7sw61erVR6o-4q7-24" value="&lt;span style=&quot;font-family: &amp;quot;trebuchet ms&amp;quot;, verdana, arial, sans-serif; font-size: 16px; text-align: start;&quot;&gt;Every 500ms&lt;/span&gt;" style="edgeLabel;html=1;align=center;verticalAlign=middle;resizable=0;points=[];" vertex="1" connectable="0" parent="m1CVX7sw61erVR6o-4q7-14">
          <mxGeometry x="-0.097" y="3" relative="1" as="geometry">
            <mxPoint x="-39" y="-1" as="offset" />
          </mxGeometry>
        </mxCell>
        <mxCell id="m1CVX7sw61erVR6o-4q7-16" value="" style="endArrow=classic;html=1;rounded=0;entryX=0.433;entryY=-0.067;entryDx=0;entryDy=0;entryPerimeter=0;" edge="1" parent="1" target="m1CVX7sw61erVR6o-4q7-19">
          <mxGeometry width="50" height="50" relative="1" as="geometry">
            <mxPoint x="180" y="370" as="sourcePoint" />
            <mxPoint x="180" y="440" as="targetPoint" />
          </mxGeometry>
        </mxCell>
        <mxCell id="m1CVX7sw61erVR6o-4q7-25" value="&lt;span style=&quot;font-family: &amp;quot;trebuchet ms&amp;quot;, verdana, arial, sans-serif; font-size: 16px; text-align: start;&quot;&gt;Every 500ms&lt;/span&gt;" style="edgeLabel;html=1;align=center;verticalAlign=middle;resizable=0;points=[];" vertex="1" connectable="0" parent="m1CVX7sw61erVR6o-4q7-16">
          <mxGeometry x="0.0015" y="2" relative="1" as="geometry">
            <mxPoint x="-13" as="offset" />
          </mxGeometry>
        </mxCell>
        <mxCell id="m1CVX7sw61erVR6o-4q7-18" value="&lt;span style=&quot;font-family: &amp;quot;trebuchet ms&amp;quot;, verdana, arial, sans-serif; font-size: 16px; text-align: start; text-wrap: nowrap; background-color: rgb(255, 255, 255);&quot;&gt;LED1 Task&lt;/span&gt;" style="rounded=1;whiteSpace=wrap;html=1;" vertex="1" parent="1">
          <mxGeometry y="450" width="120" height="60" as="geometry" />
        </mxCell>
        <mxCell id="m1CVX7sw61erVR6o-4q7-19" value="&lt;span style=&quot;font-family: &amp;quot;trebuchet ms&amp;quot;, verdana, arial, sans-serif; font-size: 16px; text-align: start; text-wrap: nowrap; background-color: rgb(255, 255, 255);&quot;&gt;LED2 Task&lt;/span&gt;" style="rounded=1;whiteSpace=wrap;html=1;" vertex="1" parent="1">
          <mxGeometry x="130" y="450" width="120" height="60" as="geometry" />
        </mxCell>
        <mxCell id="m1CVX7sw61erVR6o-4q7-20" value="" style="endArrow=classic;html=1;rounded=0;" edge="1" parent="1">
          <mxGeometry width="50" height="50" relative="1" as="geometry">
            <mxPoint x="220" y="370" as="sourcePoint" />
            <mxPoint x="290" y="450" as="targetPoint" />
          </mxGeometry>
        </mxCell>
        <mxCell id="m1CVX7sw61erVR6o-4q7-26" value="&lt;span style=&quot;font-family: &amp;quot;trebuchet ms&amp;quot;, verdana, arial, sans-serif; font-size: 16px; text-align: start;&quot;&gt;Every 500ms&lt;/span&gt;" style="edgeLabel;html=1;align=center;verticalAlign=middle;resizable=0;points=[];" vertex="1" connectable="0" parent="m1CVX7sw61erVR6o-4q7-20">
          <mxGeometry x="-0.0432" relative="1" as="geometry">
            <mxPoint x="16" as="offset" />
          </mxGeometry>
        </mxCell>
        <mxCell id="m1CVX7sw61erVR6o-4q7-21" value="&lt;span style=&quot;font-family: &amp;quot;trebuchet ms&amp;quot;, verdana, arial, sans-serif; font-size: 16px; text-align: start; text-wrap: nowrap; background-color: rgb(255, 255, 255);&quot;&gt;LED3 Task&lt;/span&gt;" style="rounded=1;whiteSpace=wrap;html=1;" vertex="1" parent="1">
          <mxGeometry x="270" y="450" width="120" height="60" as="geometry" />
        </mxCell>
        <mxCell id="m1CVX7sw61erVR6o-4q7-22" value="" style="endArrow=classic;html=1;rounded=0;" edge="1" parent="1">
          <mxGeometry width="50" height="50" relative="1" as="geometry">
            <mxPoint x="240" y="360" as="sourcePoint" />
            <mxPoint x="440" y="450" as="targetPoint" />
          </mxGeometry>
        </mxCell>
        <mxCell id="m1CVX7sw61erVR6o-4q7-27" value="&lt;span style=&quot;font-family: &amp;quot;trebuchet ms&amp;quot;, verdana, arial, sans-serif; font-size: 16px; text-align: start;&quot;&gt;Every 500ms&lt;/span&gt;" style="edgeLabel;html=1;align=center;verticalAlign=middle;resizable=0;points=[];" vertex="1" connectable="0" parent="m1CVX7sw61erVR6o-4q7-22">
          <mxGeometry x="-0.0832" relative="1" as="geometry">
            <mxPoint x="38" as="offset" />
          </mxGeometry>
        </mxCell>
        <mxCell id="m1CVX7sw61erVR6o-4q7-28" value="&lt;span style=&quot;font-family: &amp;quot;trebuchet ms&amp;quot;, verdana, arial, sans-serif; font-size: 16px; text-align: start;&quot;&gt;Update LED State&lt;/span&gt;" style="edgeLabel;html=1;align=center;verticalAlign=middle;resizable=0;points=[];" vertex="1" connectable="0" parent="m1CVX7sw61erVR6o-4q7-22">
          <mxGeometry x="-0.459" y="-1" relative="1" as="geometry">
            <mxPoint x="-93" as="offset" />
          </mxGeometry>
        </mxCell>
        <mxCell id="m1CVX7sw61erVR6o-4q7-23" value="&#xa;&lt;span style=&quot;color: rgb(0, 0, 0); font-family: &amp;quot;trebuchet ms&amp;quot;, verdana, arial, sans-serif; font-size: 16px; font-style: normal; font-variant-ligatures: normal; font-variant-caps: normal; font-weight: 400; letter-spacing: normal; orphans: 2; text-align: start; text-indent: 0px; text-transform: none; widows: 2; word-spacing: 0px; -webkit-text-stroke-width: 0px; white-space: nowrap; background-color: rgb(255, 255, 255); text-decoration-thickness: initial; text-decoration-style: initial; text-decoration-color: initial; display: inline !important; float: none;&quot;&gt;LED4 Task&lt;/span&gt;&#xa;&#xa;" style="rounded=1;whiteSpace=wrap;html=1;" vertex="1" parent="1">
          <mxGeometry x="410" y="450" width="120" height="60" as="geometry" />
        </mxCell>
        <mxCell id="m1CVX7sw61erVR6o-4q7-29" value="&lt;span style=&quot;font-family: &amp;quot;trebuchet ms&amp;quot;, verdana, arial, sans-serif; font-size: 16px; text-align: start; text-wrap: nowrap; background-color: rgb(255, 255, 255);&quot;&gt;Buttons Task&lt;/span&gt;" style="rounded=1;whiteSpace=wrap;html=1;" vertex="1" parent="1">
          <mxGeometry x="120" y="550" width="120" height="50" as="geometry" />
        </mxCell>
        <mxCell id="m1CVX7sw61erVR6o-4q7-41" value="" style="endArrow=classic;html=1;rounded=0;" edge="1" parent="1">
          <mxGeometry width="50" height="50" relative="1" as="geometry">
            <mxPoint x="180" y="600" as="sourcePoint" />
            <mxPoint x="180" y="680" as="targetPoint" />
            <Array as="points" />
          </mxGeometry>
        </mxCell>
        <mxCell id="m1CVX7sw61erVR6o-4q7-51" value="&lt;font style=&quot;font-size: 16px;&quot;&gt;every 100 ms&lt;/font&gt;" style="edgeLabel;html=1;align=center;verticalAlign=middle;resizable=0;points=[];" vertex="1" connectable="0" parent="m1CVX7sw61erVR6o-4q7-41">
          <mxGeometry x="-0.12" y="-3" relative="1" as="geometry">
            <mxPoint y="15" as="offset" />
          </mxGeometry>
        </mxCell>
        <mxCell id="m1CVX7sw61erVR6o-4q7-52" value="&lt;font style=&quot;font-size: 16px;&quot;&gt;change bottons value&lt;/font&gt;" style="edgeLabel;html=1;align=center;verticalAlign=middle;resizable=0;points=[];" vertex="1" connectable="0" parent="m1CVX7sw61erVR6o-4q7-41">
          <mxGeometry x="-0.425" y="-2" relative="1" as="geometry">
            <mxPoint as="offset" />
          </mxGeometry>
        </mxCell>
        <mxCell id="m1CVX7sw61erVR6o-4q7-42" value="&lt;span style=&quot;font-family: &amp;quot;trebuchet ms&amp;quot;, verdana, arial, sans-serif; font-size: 16px; text-align: start; text-wrap: nowrap; background-color: rgb(255, 255, 255);&quot;&gt;Buttons Task&lt;/span&gt;" style="rounded=1;whiteSpace=wrap;html=1;" vertex="1" parent="1">
          <mxGeometry x="120" y="680" width="120" height="60" as="geometry" />
        </mxCell>
        <mxCell id="m1CVX7sw61erVR6o-4q7-54" style="edgeStyle=orthogonalEdgeStyle;rounded=0;orthogonalLoop=1;jettySize=auto;html=1;exitX=0.5;exitY=1;exitDx=0;exitDy=0;" edge="1" parent="1" source="m1CVX7sw61erVR6o-4q7-53">
          <mxGeometry relative="1" as="geometry">
            <mxPoint x="400" y="690" as="targetPoint" />
          </mxGeometry>
        </mxCell>
        <mxCell id="m1CVX7sw61erVR6o-4q7-56" value="&lt;span style=&quot;font-family: &amp;quot;trebuchet ms&amp;quot;, verdana, arial, sans-serif; font-size: 16px; text-align: start;&quot;&gt;Every 1s&lt;/span&gt;" style="edgeLabel;html=1;align=center;verticalAlign=middle;resizable=0;points=[];" vertex="1" connectable="0" parent="m1CVX7sw61erVR6o-4q7-54">
          <mxGeometry x="0.0055" y="2" relative="1" as="geometry">
            <mxPoint y="14" as="offset" />
          </mxGeometry>
        </mxCell>
        <mxCell id="m1CVX7sw61erVR6o-4q7-57" value="&lt;span style=&quot;font-family: &amp;quot;trebuchet ms&amp;quot;, verdana, arial, sans-serif; font-size: 16px; text-align: start;&quot;&gt;Send Time Counter&lt;/span&gt;" style="edgeLabel;html=1;align=center;verticalAlign=middle;resizable=0;points=[];" vertex="1" connectable="0" parent="m1CVX7sw61erVR6o-4q7-54">
          <mxGeometry x="-0.337" y="-1" relative="1" as="geometry">
            <mxPoint as="offset" />
          </mxGeometry>
        </mxCell>
        <mxCell id="m1CVX7sw61erVR6o-4q7-53" value="&lt;span style=&quot;font-family: &amp;quot;trebuchet ms&amp;quot;, verdana, arial, sans-serif; font-size: 16px; text-align: start; text-wrap: nowrap; background-color: rgb(255, 255, 255);&quot;&gt;UART Task&lt;/span&gt;" style="rounded=1;whiteSpace=wrap;html=1;" vertex="1" parent="1">
          <mxGeometry x="340" y="550" width="120" height="50" as="geometry" />
        </mxCell>
        <mxCell id="m1CVX7sw61erVR6o-4q7-55" value="&lt;span style=&quot;font-family: &amp;quot;trebuchet ms&amp;quot;, verdana, arial, sans-serif; font-size: 16px; text-align: start; text-wrap: nowrap; background-color: rgb(255, 255, 255);&quot;&gt;UART Task&lt;/span&gt;" style="rounded=1;whiteSpace=wrap;html=1;" vertex="1" parent="1">
          <mxGeometry x="340" y="690" width="120" height="60" as="geometry" />
        </mxCell>
      </root>
    </mxGraphModel>
  </diagram>
</mxfile>
